<?xml version="1.0" encoding="utf-8"?>
<!-- Uploaded to: SVG Repo, www.svgrepo.com, Generator: SVG Repo Mixer Tools -->
<svg fill="#000000" version="1.1" id="Layer_1" xmlns="http://www.w3.org/2000/svg" xmlns:xlink="http://www.w3.org/1999/xlink" 
	 width="800px" height="800px" viewBox="0 0 256 241" enable-background="new 0 0 256 241" xml:space="preserve">
<path d="M254,188V2H2v186h111v29H75v22h106v-22h-38v-29H254z M19,19h217v151H19L19,19z M201.263,112.668
	c0,13.357-11.269,24.221-24.612,24.221h-33.77v-25.184h14.882L137.194,84.19l-20.641,27.515h14.882v25.184H71.335
	c-9.47,0-16.599-7.168-16.599-16.589s7.624-17.114,17.154-17.113c1.132,0,2.263,0.12,3.336,0.298c0-0.06-0.06-0.179-0.06-0.298
	c0-13.357,10.841-24.209,24.183-24.209c2.561,0,5.003,0.477,7.386,1.252c2.323-17.114,17.251-30.34,35.001-30.34
	c19.418,0,34.867,15.79,34.867,35.229c0,1.133-0.06,2.266-0.179,3.399c0.238,0,0.477-0.06,0.715-0.06
	C190.482,88.458,201.323,99.311,201.263,112.668z"/>
</svg>